<?xml version="1.0" encoding="UTF-8" standalone="no"?>
<!-- Created with Inkscape (http://www.inkscape.org/) -->

<svg
   width="2438.1167"
   height="2065.325"
   viewBox="0 0 2438.1166 2065.325"
   version="1.1"
   id="svg1"
   xml:space="preserve"
   inkscape:version="1.3 (1:1.3+202307231459+0e150ed6c4)"
   sodipodi:docname="coffee_shop.svg"
   xmlns:inkscape="http://www.inkscape.org/namespaces/inkscape"
   xmlns:sodipodi="http://sodipodi.sourceforge.net/DTD/sodipodi-0.dtd"
   xmlns="http://www.w3.org/2000/svg"
   xmlns:svg="http://www.w3.org/2000/svg"><sodipodi:namedview
     id="namedview1"
     pagecolor="#ffffff"
     bordercolor="#000000"
     borderopacity="0.25"
     inkscape:showpageshadow="2"
     inkscape:pageopacity="0.0"
     inkscape:pagecheckerboard="0"
     inkscape:deskcolor="#d1d1d1"
     inkscape:document-units="px"
     inkscape:zoom="0.20163592"
     inkscape:cx="684.40187"
     inkscape:cy="1056.3594"
     inkscape:window-width="1920"
     inkscape:window-height="996"
     inkscape:window-x="0"
     inkscape:window-y="0"
     inkscape:window-maximized="1"
     inkscape:current-layer="layer1" /><defs
     id="defs1" /><g
     inkscape:label="Layer 1"
     inkscape:groupmode="layer"
     id="layer1"
     transform="translate(-227.37019,1248.7401)"><circle
       style="fill:none;fill-rule:evenodd;stroke:#000000;stroke-width:4.99999;stroke-dasharray:none;stroke-opacity:0.999974"
       id="path1"
       cx="1426.0129"
       cy="-216.07756"
       r="1030.1625" /><circle
       style="fill:none;fill-rule:evenodd;stroke:#000000;stroke-width:4.99999;stroke-dasharray:4.99999, 10;stroke-dashoffset:0;stroke-opacity:0.999974"
       id="circle1"
       cx="1426.0129"
       cy="-216.07756"
       r="934.40094" /><g
       id="g24"
       transform="matrix(6.5788195,0,0,6.5788195,-1337.855,-4076.4598)"
       style="stroke-width:0.152003"><path
         d="m 379.76367,489.84376 0.002,3.30469 c 0.003,5.39858 0.56887,10.42399 1.7461,15.52343 2.91992,12.64823 9.09805,21.49201 18.08008,25.88282 1.39421,0.68155 2.73932,1.32537 2.98828,1.42968 0.32354,0.13554 -2.39463,0.19218 -9.52735,0.20118 -9.63813,0.0118 -9.99454,0.0234 -10.43164,0.36718 -0.58645,0.4613 -0.9372,1.32191 -0.78515,1.92774 0.0662,0.26367 0.35462,0.714 0.64062,1 L 382.99609,540 h 33.41211 c 25.5191,0 33.52412,-0.0516 33.88672,-0.2168 1.3242,-0.60316 1.30129,-2.69833 -0.0371,-3.38281 -0.2766,-0.14141 -3.46276,-0.20584 -10.59375,-0.21484 -7.5081,-0.009 -10.07743,-0.0641 -9.74414,-0.20899 4.7311,-2.05704 7.24214,-3.65012 10.20899,-6.47656 2.7663,-2.63539 4.97009,-5.724 6.99023,-9.79688 l 1.2207,-2.46093 0.66602,0.83203 c 1.7538,2.19191 4.29347,3.44749 7.25976,3.58984 3.0958,0.14856 5.38408,-0.72002 7.51368,-2.84961 1.2488,-1.24872 2.13547,-2.71902 2.60937,-4.33203 0.3817,-1.29987 0.3817,-4.15716 0,-5.45703 -0.9884,-3.36472 -3.78137,-6.09065 -7.13476,-6.96289 -1.7328,-0.4507 -4.4103,-0.3031 -5.9668,0.33008 -0.6424,0.26136 -1.17936,0.4589 -1.19336,0.4375 -0.0137,-0.0214 0.084,-0.89575 0.2168,-1.94141 0.1328,-1.04567 0.29242,-3.95809 0.35742,-6.47265 l 0.11914,-4.57227 H 416.2754 Z m 3.7461,3.80273 h 32.71093 32.70899 v 1.22266 c -0.007,4.86786 -1.32223,12.8333 -2.91407,17.64648 -1.82115,5.50679 -4.22346,9.69922 -7.58593,13.24415 -4.1904,4.41782 -9.57385,7.12505 -16.29492,8.18945 h -0.002 c -1.64,0.2597 -7.71337,0.4833 -9.05273,0.33398 -7.20021,-0.80269 -11.66022,-2.44748 -16.20703,-5.98047 -6.91672,-5.37446 -11.15709,-14.25591 -12.75586,-26.71289 -0.19981,-1.55688 -0.41923,-3.98091 -0.48633,-5.38672 z m 73.21289,12.04297 c 1.38069,-0.002 1.6703,0.0603 2.7539,0.59375 1.3168,0.64827 2.23494,1.57545 2.89844,2.92188 0.3372,0.68356 0.4082,1.12958 0.4082,2.54883 0,1.46048 -0.0657,1.85631 -0.44336,2.625 -0.5724,1.16453 -1.84649,2.42957 -2.99609,2.97656 -1.3835,0.65827 -3.46484,0.70928 -4.86523,0.11914 -1.5432,-0.65034 -2.52768,-1.59285 -3.32618,-3.18555 -0.4301,-0.85864 -0.50218,-1.20817 -0.49218,-2.53515 0.009,-1.9115 0.54324,-3.15651 1.90234,-4.42774 1.3509,-1.26358 2.29546,-1.63472 4.16016,-1.63672 z"
         id="path15"
         sodipodi:nodetypes="ccssscssscsssccssccssccsscsccccccccssccssscccscscssccsc"
         style="stroke-width:0.152003" /><path
         style="fill:#000000;stroke-width:0.152003"
         d="m 424.91981,481.18432 c -0.98683,-0.86645 -1.57439,-2.17286 -1.6763,-3.72721 -0.10974,-1.67368 0.12729,-2.89061 1.26102,-6.47411 1.17138,-3.70255 1.23028,-4.67554 0.36187,-5.97786 -0.74351,-1.11503 -0.70032,-1.9053 0.14584,-2.6681 1.4741,-1.32889 3.37719,-0.0275 4.10304,2.80573 0.46385,1.81056 0.19374,3.53599 -1.24021,7.92249 -0.95934,2.93467 -1.0374,4.45809 -0.2792,5.44911 1.07488,1.40492 0.34245,3.24212 -1.29249,3.24212 -0.56327,0 -0.88205,-0.13184 -1.38357,-0.57217 z"
         id="path24" /><path
         style="fill:#000000;stroke-width:0.152003"
         d="m 416.87264,481.28022 c -1.30893,-1.10138 -1.94118,-3.4416 -1.75443,-6.49379 0.1042,-1.70307 0.4639,-3.88932 1.66844,-10.14079 0.34604,-1.79592 0.49503,-3.17256 0.51105,-4.72204 0.0218,-2.10829 0.005,-2.21303 -0.47532,-2.90681 -0.82199,-1.1881 -0.64729,-2.50872 0.40378,-3.05224 1.21377,-0.62767 2.35518,-0.08 3.15868,1.51551 1.21427,2.41122 1.12701,5.12664 -0.41964,13.05852 -1.2889,6.61 -1.36194,8.77497 -0.34257,10.15375 0.26286,0.35553 0.40546,0.80628 0.40546,1.28161 0,1.56044 -1.91249,2.35216 -3.15545,1.30628 z"
         id="path23" /><path
         style="fill:#000000;stroke-width:0.152003"
         d="m 408.77045,481.31882 c -0.74648,-0.62812 -1.49089,-2.10082 -1.69147,-3.34627 -0.24771,-1.53814 0.0381,-3.22445 1.13866,-6.71793 1.16362,-3.6937 1.26457,-5.07378 0.45672,-6.24359 -0.68877,-0.99738 -0.67767,-1.93362 0.0313,-2.64263 0.40449,-0.40449 0.69264,-0.52776 1.2222,-0.52286 0.92886,0.009 1.40538,0.30345 2.12402,1.31423 1.39265,1.95878 1.37431,4.38355 -0.0674,8.90965 -1.33521,4.19178 -1.43245,5.53262 -0.47775,6.58755 0.69487,0.76782 0.50789,2.25392 -0.35471,2.81911 -0.65897,0.43178 -1.76868,0.3585 -2.38164,-0.15726 z"
         id="path7" /></g><rect
       style="fill:#fffbeb;fill-opacity:1;fill-rule:evenodd;stroke:none;stroke-width:1;stroke-opacity:1"
       id="rect33"
       width="2438.1167"
       height="634.15594"
       x="227.37019"
       y="-416.91806" /><g
       id="g1"
       transform="translate(-590.75623,1233.5029)"><g
         id="g33"
         transform="matrix(3.3344593,0,0,3.3344593,-370.55197,-2321.376)"
         style="stroke-width:0.299899"><g
           id="g29"
           style="fill:#000000;fill-opacity:1;stroke-width:0.299899"
           transform="translate(-629.78072,-267.76559)"><text
             xml:space="preserve"
             style="font-size:171.196px;line-height:0.1;font-family:Kalimati;-inkscape-font-specification:Kalimati;fill:#000000;fill-opacity:1;fill-rule:evenodd;stroke:#ffffff;stroke-width:1.49949;stroke-dasharray:none;stroke-dashoffset:0;stroke-opacity:0.999974"
             x="986.35547"
             y="601.60547"
             id="text27"><tspan
               sodipodi:role="line"
               id="tspan27"
               x="986.35547"
               y="601.60547"
               style="font-style:normal;font-variant:normal;font-weight:normal;font-stretch:normal;font-size:171.196px;font-family:Rasa;-inkscape-font-specification:Rasa;fill:#000000;fill-opacity:1;stroke:#fffbeb;stroke-width:1.49949;stroke-dasharray:none;stroke-dashoffset:0;stroke-opacity:1">Jazzed Sips</tspan></text><path
             style="fill:#000000;fill-opacity:1;fill-rule:evenodd;stroke:#000000;stroke-width:1.49949;stroke-dasharray:none;stroke-dashoffset:0;stroke-opacity:0.999974"
             d="M 987.84542,468.98413 H 1715.8702"
             id="path28" /><path
             style="fill:#000000;fill-opacity:1;fill-rule:evenodd;stroke:#000000;stroke-width:1.49949;stroke-dasharray:none;stroke-dashoffset:0;stroke-opacity:0.999974"
             d="m 987.8455,659.16667 h 728.0247"
             id="path29" /></g></g></g><g
       id="g40"
       transform="matrix(1.6746148,0,0,1.698396,663.11268,-725.19524)"
       style="stroke-width:0.592957"><text
         xml:space="preserve"
         style="font-size:196.991px;line-height:0.1;font-family:Kalimati;-inkscape-font-specification:Kalimati;fill:#000000;fill-opacity:1;fill-rule:evenodd;stroke:#ffffff;stroke-width:2.96479;stroke-dasharray:none;stroke-dashoffset:0;stroke-opacity:0.999974"
         x="142.44395"
         y="710.45483"
         id="text37"
         transform="scale(0.98544262,1.0147724)"><tspan
           sodipodi:role="line"
           id="tspan37"
           x="142.44395"
           y="710.45483"
           style="font-style:normal;font-variant:normal;font-weight:normal;font-stretch:normal;font-size:196.991px;font-family:Rasa;-inkscape-font-specification:Rasa;fill:#000000;fill-opacity:1;stroke:#fffbeb;stroke-width:2.96479;stroke-dasharray:none;stroke-dashoffset:0;stroke-opacity:1">Est. 2014</tspan></text></g></g></svg>
