<?xml version="1.0" encoding="UTF-8" standalone="no"?>
<!-- Created with Inkscape (http://www.inkscape.org/) -->

<svg
   width="137.54089"
   height="199.61693"
   viewBox="0 0 137.54089 199.61693"
   version="1.1"
   id="svg1"
   xml:space="preserve"
   inkscape:version="1.3 (1:1.3+202307231459+0e150ed6c4)"
   sodipodi:docname="favicon.svg"
   xmlns:inkscape="http://www.inkscape.org/namespaces/inkscape"
   xmlns:sodipodi="http://sodipodi.sourceforge.net/DTD/sodipodi-0.dtd"
   xmlns="http://www.w3.org/2000/svg"
   xmlns:svg="http://www.w3.org/2000/svg"><sodipodi:namedview
     id="namedview1"
     pagecolor="#ffffff"
     bordercolor="#000000"
     borderopacity="0.25"
     inkscape:showpageshadow="2"
     inkscape:pageopacity="0.0"
     inkscape:pagecheckerboard="0"
     inkscape:deskcolor="#d1d1d1"
     inkscape:document-units="px"
     inkscape:zoom="0.69114583"
     inkscape:cx="138.17634"
     inkscape:cy="199.66843"
     inkscape:window-width="1920"
     inkscape:window-height="996"
     inkscape:window-x="0"
     inkscape:window-y="0"
     inkscape:window-maximized="1"
     inkscape:current-layer="layer1" /><defs
     id="defs1" /><g
     inkscape:label="Layer 1"
     inkscape:groupmode="layer"
     id="layer1"
     transform="translate(-822.45911,-340.38307)"><path
       style="fill:#ffffff;fill-opacity:1;stroke:#000000;stroke-opacity:1"
       d="m 872.42312,539.08196 c -8.5088,-1.10219 -16.5362,-5.10749 -19.6418,-9.80031 -3.3124,-5.0054 -3.7676,-8.01071 -9.0736,-59.90288 -4.4477,-43.49826 -4.5603,-45.36329 -2.8528,-47.25 0.9777,-1.08034 2.7631,-1.96425 3.9676,-1.96425 4.8736,0 5.0891,1.04628 9.9923,48.5 2.5573,24.75 5.0692,46.62875 5.5821,48.61945 1.2433,4.82611 4.5118,8.80971 8.6455,10.53686 4.722,1.97298 26.8871,2.84451 36.7144,1.44361 9.0642,-1.29212 13.4613,-3.44945 15.4584,-7.58423 1.3122,-2.71672 11.0491,-91.5346 11.0898,-101.1587 0.013,-2.94629 -0.4612,-4.32672 -1.6399,-4.77902 -0.9116,-0.3498 -8.4491,-0.11137 -16.75,0.52984 -22.7469,1.7571 -49.2556,0.48765 -77.3691,-3.70507 -5.7045,-0.85074 -10.3026,-4.06985 -12.645,-8.85261 -1.7435,-3.55987 -1.8096,-4.57805 -0.7139,-10.9868 1.5301,-8.94932 3.8244,-13.37496 8.1859,-15.79056 3.7978,-2.10337 4.6755,-2.07989 26.9495,0.72104 21.5149,2.70547 71.1986,1.70763 74.4005,-1.49425 1.3211,-1.32115 -2.2549,-17.55827 -4.2677,-19.37756 -4.1282,-3.73132 -35.3811,-6.39591 -55.1328,-4.70056 -13.1997,1.13298 -17,1.82236 -17,3.0839 0,2.36879 28.313,4.08186 47.2316,2.85774 16.6549,-1.07765 18.7684,-0.61042 18.7684,4.14905 0,4.69488 -2.9535,5.85316 -18.0778,7.08965 -20.5182,1.67747 -47.4609,-0.5327 -58.0259,-4.75997 -4.7022,-1.88145 -8.8963,-6.57886 -8.8963,-9.96399 0,-5.43372 9.2487,-10.33237 23.161,-12.26739 27.157,-3.77718 60.3276,-1.71772 73.5737,4.56797 4.7203,2.23993 6.1591,4.86913 7.934,14.49881 2.1642,11.74144 2.9942,13.55644 6.7697,14.80245 5.2957,1.74775 8.2988,5.76744 10.11,13.53251 2.8844,12.36641 0.3067,19.04666 -8.4753,21.96357 -2.6942,0.89486 -5.1608,2.3105 -5.4814,3.14586 -0.3205,0.83536 -2.8229,23.64974 -5.5608,50.69862 -2.7379,27.04888 -5.4578,51.47793 -6.0442,54.28678 -2.149,10.2941 -10.4862,17.29519 -23.0168,19.3282 -7.447,1.20823 -28.4809,1.19836 -37.8693,-0.0178 z m 57.8358,-135.46763 c 7.3901,-0.86843 14.2423,-2.01023 15.2271,-2.53731 4.5558,-2.43819 4.7926,-10.58474 0.3914,-13.46847 -2.1114,-1.38345 -3.2557,-1.38638 -11.2032,-0.0286 -28.9,4.93721 -61.3229,4.59084 -93.4276,-0.99807 -4.6041,-0.8015 -6.5778,1.09077 -7.4913,7.18223 -0.9745,6.4983 0.1971,7.28511 13.4186,9.01149 27.8279,3.63361 56.8123,3.92622 83.085,0.83877 z m -56.3321,119.51176 c -4.0913,-1.22432 -8.3185,-5.6033 -8.987,-9.30967 -0.8896,-4.93218 -7.7032,-75.89933 -7.3236,-76.27891 0.1863,-0.18633 1.881,0.10352 3.766,0.64411 8.6347,2.47642 18.8343,0.81069 36.3716,-5.93998 11.1932,-4.30863 17.4401,-5.2588 24.7506,-3.7646 3.462,0.7076 3.6542,0.94465 3.2193,3.97001 -0.2544,1.76961 -2.0247,20.09247 -3.934,40.71747 -1.9094,20.625 -3.743,38.85 -4.0748,40.5 -0.8121,4.03879 -4.9939,8.29465 -9.3355,9.50075 -4.3176,1.19944 -30.4126,1.16976 -34.4526,-0.0392 z"
       id="path1" /></g></svg>
